<svg width="24" height="24" viewBox="0 0 24 24" fill="none" xmlns="http://www.w3.org/2000/svg">
<g clip-path="url(#clip0_625_612)">
<path fill-rule="evenodd" clip-rule="evenodd" d="M12 0C12.3799 0 12.6889 0.308991 12.6889 0.688898V1.69981L12.7815 1.7085C14.9987 1.88579 17.0249 2.72665 18.6885 4.14352L18.7602 4.20503L18.86 4.1674L19.5135 3.51613C19.6437 3.3866 19.8167 3.31496 19.9998 3.31496C20.1836 3.31496 20.3565 3.3866 20.4868 3.51685C20.6163 3.64566 20.6872 3.81933 20.6872 4.00241C20.6872 4.18549 20.6163 4.35916 20.4868 4.48869L19.766 5.20654L19.8275 5.27818C21.2755 6.97799 22.1164 9.00561 22.2879 11.1758L22.2958 11.2699L22.3935 11.314H23.3133C23.6917 11.314 24 11.6223 24 12C24 12.3806 23.6917 12.6889 23.3133 12.6889H22.2987L22.2915 12.783C22.1164 14.9958 21.2755 17.0227 19.8558 18.6885L19.7942 18.7609L19.8333 18.8615L20.486 19.5149C20.7538 19.7819 20.7538 20.2183 20.4868 20.486C20.3565 20.6156 20.1836 20.6872 19.999 20.6872C19.816 20.6872 19.6437 20.6156 19.5142 20.486L18.7942 19.766L18.7218 19.8283C17.022 21.2762 14.9958 22.1171 12.8271 22.2879L12.733 22.2958L12.6889 22.3935V23.314C12.6889 23.6917 12.3799 24 12 24C11.6215 24 11.3133 23.6917 11.3133 23.314V22.2995L11.2192 22.2915C9.00488 22.1171 6.97727 21.2762 5.31146 19.8572L5.2391 19.795L5.13851 19.8333L4.48797 20.4868C4.35844 20.6156 4.18549 20.6872 4.00096 20.6872C3.81716 20.6872 3.64494 20.6156 3.51541 20.486C3.3866 20.3565 3.31496 20.1843 3.31496 20.0005C3.31496 19.8167 3.3866 19.6445 3.51541 19.5149L4.23253 18.7942L4.17247 18.7225C2.72592 17.0242 1.88434 14.9966 1.71211 12.8271L1.70415 12.733L1.60646 12.6889H0.689622C0.308991 12.6889 0 12.3806 0 12C0 11.6223 0.308991 11.314 0.689622 11.314H1.70198L1.70922 11.2185C1.88434 9.00416 2.72592 6.97582 4.14424 5.31146L4.20575 5.2391L4.16668 5.13924L3.51541 4.48797C3.38588 4.35844 3.31424 4.18549 3.31424 4.00241C3.31424 3.81933 3.38588 3.64638 3.51541 3.51685C3.64638 3.3866 3.81861 3.31496 4.00241 3.31496C4.18621 3.31496 4.35844 3.3866 4.48869 3.51685L5.20654 4.23542L5.2789 4.17174C6.97437 2.72665 9.00199 1.88579 11.1751 1.71284L11.2699 1.7056L11.3133 1.60646V0.688898C11.3133 0.308991 11.6215 0 12 0ZM12 3.05084C7.06555 3.05084 3.05084 7.06555 3.05084 12C3.05084 16.9352 7.06555 20.9492 12 20.9492C16.9345 20.9492 20.9484 16.9352 20.9484 12C20.9484 7.06555 16.9345 3.05084 12 3.05084ZM12 8.10042C14.1499 8.10042 15.8997 9.84944 15.8997 12.0001C15.8997 14.1507 14.1499 15.8997 12 15.8997C9.84936 15.8997 8.10034 14.1507 8.10034 12.0001C8.10034 9.84944 9.84936 8.10042 12 8.10042ZM12 9.49775C10.62 9.49775 9.49768 10.6201 9.49768 12.0001C9.49768 13.38 10.62 14.5024 12 14.5024C13.3792 14.5024 14.5016 13.38 14.5016 12.0001C14.5016 10.6201 13.3792 9.49775 12 9.49775Z" fill="#999FB1"/>
</g>
<defs>
<clipPath id="clip0_625_612">
<rect width="24" height="24" fill="white"/>
</clipPath>
</defs>
</svg>
